<svg id="SVGRoot" width="1200" height="770" version="1.1" viewBox="0 0 1200 770" xmlns="http://www.w3.org/2000/svg"><text transform="translate(-266 -43.7)" fill="#000000" font-family="sans-serif" font-size="40px" style="line-height:1.25;shape-inside:url(#rect2535);white-space:pre" xml:space="preserve"/><g transform="translate(-579 -34.6)" fill="#ffc107" style="shape-inside:url(#rect2529);white-space:pre" aria-label="My"><path d="m827 182c33.5-21 31.5-86.8 17.7-113-48.7-12.7 40.3-25.3 39.2 10.5 7.13 23.8 30.9 97.3 45.4 40.1 6.53-28.5 30.1-91.6 61.2-55.9-33.2 14-12 73.6-6.86 104 56.4 27-85.8 20.4-26.9 3.33 0.248-20.7 4.57-81.7-9.47-81.2-15.4 25.6-23 73.9-42.4 85.9-13.9-21.1-32.1-89.1-46-78.3-2.76 31.1-1.79 69 21.3 86.7-17.2-5.63-37.9 7.7-53.2-2.6z"/><path d="m1015 231c37.6-8.55 38.5-57.5 15.7-87.8 1.46-22-51-55.5-6.24-47 41.4-11.8-3.23 22.1 23.4 41.6 14.8 40.3 34.8-36.6 13.6-42.2 26.2-9.42 56-2.89 20.5 19.1-24.9 38.5-11.5 105-56.3 125-5.34 0.362-9.94-3.8-10.7-8.8z"/></g><g transform="translate(-367 -735)" style="shape-inside:url(#rect2547);white-space:pre" aria-label="tea"><path d="m748 1367c-1.29-32.5 7.83-71.5-22.4-86.1 23.9-10.5 37.8-48.1 58.6-49.4-9.72 52 48 11.6 57.5 45.2-13.6 27.8-69.4-7.12-59.3 40.4-7.37 41.3-9.15 118 52.3 92 20.7 33.8-53.7 50.2-75 24.4-17.6-14.3-13.3-45.9-11.7-66.6z"/><path d="m866 1356c-3.19-56.5 52.7-122 112-97.6 36.2 3.47 73.7 75 14.2 66.5-32.7-1.52-118-10.1-82.4 45.9 16.3 52.5 86.9 23.4 108 27.9-12.2 46-80.5 58.7-116 28.1-22.5-16.5-32.3-44.4-36.6-70.8zm38.5-53.3c9.75 20.7 53.9 10 73.3 3.4 24.1-52.2-65.6-41.7-73.3-3.4z"/><path d="m1133 1419c-25 28-89.8 33-81-19.5 6.56-54.3 116-34.3 87.1-98.3-9.73-33.7-65.2-25.1-52.6 12.1-43.1 32-36.1-31.6-1.18-39.7 41.6-37.2 107-1.4 91.6 55.4-1.6 30.5-19.6 89.9 28.8 80.8 1.66 44.8-56.6 40.5-72.7 9.3zm-44.1-29.3c8.49 59.3 85.9-10.5 43.7-35.4-15.8 8.63-43.3 12.7-43.7 35.4z"/></g><g transform="translate(-354 -357)" fill="#198754" style="shape-inside:url(#rect2555);white-space:pre" aria-label="herbal"><path d="m418 786c56-11.4 28.9-77.3 37.6-118-13-48.6 18.1-114-24.1-150-28.2-29 79.4-51.8 57.5 0.669 1.42 35-18.7 121 44 87.2 52.2-20.2 81.9 40.7 70.4 84.6 4.51 35-10.1 83.7 31.9 96.3-15.1 19.6-77.9 18-96.5-0.74 44.3-12.6 24-62.2 28.4-98.3 13.7-43.2-46.7-81.4-77.1-48.4 0.894 47.3-15.2 112 23.1 149-22.9 18-70.5 11.4-94.6 6.75z"/><path d="m652 707c-2.47-56.5 46.6-120 107-108 44.4-1.54 97.3 84.6 24.1 75-39-6.46-128-5.11-81.8 55.4 24.8 44 81.1 24 114 21.1-14.2 56.3-97.7 65.4-133 23.6-17.7-17.9-25.4-43-29.5-67.2zm41-56.9c9.65 23.4 52.6 7.6 74.6 6.43 43.3-50.5-68.8-53.4-74.6-6.43z"/><path d="m848 785c47.2-21.7 37.7-101 12.9-136-35.2-22.4 64.8-64.2 55.8-19.8 24.2-12.9 79.8-34.5 67.6 20.1-14.9 38.2-71.5-34.6-75.5 25.2 2.21 43-11.8 95 35.9 114-14.7 14.8-83.8 19.1-96.7-3.06z"/><path d="m1029 797c-19.2-36.3-0.823-82.3-9.12-123 0.913-42.4 2.96-85.1-0.556-127-10.5-23-41.3-30.6-4.49-50.1 44.6-33.6 61.2 22.4 44.8 56-2 37-11.4 93.3 40.1 59.9 57.4-21.8 118 44.4 103 101-1.37 56.2-60.9 91.6-113 85.8-20.2 1.48-40.5-4.9-60.4-2.23zm28.5-87.7c-1.15 37.2 28.1 82.6 70.2 70.4 38.5-22.6 43-80.7 23.7-118-19-38.6-106-46.2-93.6 12.2 1.75 11.6 0.826 23.5-0.216 35.1z"/><path d="m1322 773c-25.4 26.4-89.8 38.6-87-15.2-0.277-63.3 116-38.6 96.3-104-4.79-38.2-70.2-39.9-57.9 2.93-25.9 39.6-54.2-14.4-15-29.4 27.5-27.6 90.6-41.9 106 5.64 17 40.7-13.8 87.9 6.92 125 24.4 6.73 46.5 8.1 17.6 32.8-24.7 16.6-52.5 0.982-66.7-18zm-47.1-31.2c9.91 67.1 95.2-19.1 42.9-37.7-14.7 11.5-43.1 13.7-42.9 37.7z"/><path d="m1416 799c-31.8-19.1 24.5-18.6 26-35.1 9.21-41.5 0.694-84.8 0.765-127-2.52-40.2 13.2-91.5-21.8-122-4.71-23.2 88.2-47.1 60.4 8.62-6.15 39.2 1.61 78.6-5.03 118 11.4 42.7-26.1 120 27.8 136 38.7 13.8-8.76 31.8-28 19.6-20.1 0.81-40.1 2.66-60.2 1.9z"/></g></svg>
