<svg id="SVGRoot" width="1200" height="770" version="1.1" viewBox="0 0 1200 770" xmlns="http://www.w3.org/2000/svg"><g transform="translate(-578.85 -34.571)" fill="#ffc107" style="shape-inside:url(#rect2529);white-space:pre" aria-label="My"><path d="m827.09 182.3q0-1.5625 0.29297-2.0508t1.1719-1.1719q1.5625-1.0742 3.9062-2.2461 2.3438-1.1719 4.7852-2.3438 2.4414-1.1719 4.6875-2.2461 2.2461-1.0742 3.7109-1.9531 2.1484-3.8086 3.0273-8.1055 0.87891-4.2969 0.87891-8.7891v-2.832q0-0.78125 0-1.5625t0.0977-1.5625q0.0976-0.19531 0.19531-0.68359 0.0977-0.48828 0.19531-1.0742 0.0977-0.58594 0.0977-1.0742 0.0977-0.58594 0.0977-0.87891l1.1719-1.9531 0.0977-3.6133q0-0.48828-0.19532-1.0742-0.0976-0.6836-1.0742-1.9531l1.6602-5.3711q0-0.78125-0.19531-1.2695-0.0977-0.48828-0.29297-0.97656-0.19531-0.19532-0.39063-0.78125-0.19531-0.58594-0.19531-1.1719v-1.8555l1.0742-7.6172-1.0742-6.6406q0-2.2461 0.97656-4.4922 1.0742-2.2461 1.0742-4.3945l-0.48828-3.8086q0-1.5625 0.29297-3.3203 0.39063-1.7578 0.78125-3.5156 0.48828-1.8555 0.87891-3.7109 0.39062-1.9531 0.39062-3.8086-0.39062-0.58594-1.1719-1.5625-0.78125-0.97656-1.1719-1.7578 0-1.2695-0.29297-3.2227-0.19531-1.9531-0.97656-3.7109-0.68359-1.8555-1.9531-3.125-1.1719-1.2695-3.0274-1.2695l-8.1055 0.68359h-2.0508q-2.0508-0.29297-3.9062-0.58594-1.7578-0.29297-3.2226-0.87891-1.3672-0.68359-2.2461-1.8555-0.78125-1.1719-0.78125-3.3203 0-1.7578 0.19531-2.6367 0.19532-0.87891 0.78125-1.2695 0.58594-0.39062 1.5625-0.48828 1.0742-0.19531 2.7344-0.48828l2.3438-0.97656h3.2227q6.6406 0 12.695 0.87891 6.0547 0.78125 12.5 0.78125 1.5625 0 2.6367-0.29297 1.1719-0.39062 2.4414-0.39062 5.2734 2.0508 7.9102 5.3711 2.7344 3.3203 4.1016 8.6914l0.0977 1.1719q0.29297 1.9531 0.58594 3.125 0.29296 1.1719 0.8789 2.0508 0.6836 0.87891 1.8555 1.7578 1.1719 0.78125 3.3203 1.8555l-0.19531 2.0508q0 1.4648 0.29297 2.9297 0.39062 1.3672 0.87891 2.832 0.58593 1.3672 1.0742 2.832 0.48829 1.4648 0.78125 3.2227 0 0.29297 0.0977 1.0742 0.0977 0.68359 0.19531 1.4648 0.19532 0.78125 0.29297 1.4648 0.0977 0.68359 0.0977 0.87891 0.58594 1.4648 1.6602 3.3203 1.1719 1.7578 2.3438 3.6133 1.1719 1.8555 2.3438 3.7109 1.1719 1.8555 1.9531 3.3203 2.5391 5.3711 4.8828 10.84t4.5898 11.035l2.832 4.6875q0.58593 1.0742 0.8789 2.3438 0.29297 1.1719 0.6836 2.1484 0.48828 0.97656 1.1719 1.6602 0.6836 0.58594 2.0508 0.58594 1.4648 0 2.0508-0.29297 0.58594-0.29297 0.78125-0.97656 0.19532-0.6836 0.29297-1.5625 0.0977-0.97656 0.58594-2.3438 0-0.19531 0.87891-0.78125 0.97656-0.58594 1.1719-0.78125 1.8555-2.4414 3.125-5.1758 1.2695-2.832 2.2461-5.7617 1.0742-3.0274 1.9531-6.0547t1.9531-5.957q0-0.0977 0.39062-1.0742 0.48828-0.97656 0.97656-2.1484 0.58594-1.2695 1.0742-2.4414 0.58594-1.1719 0.78125-1.6602 1.4648-3.7109 2.3438-6.8359 0.97656-3.125 2.5391-6.4453l0.6836-1.8555q1.9531-3.7109 4.1016-7.7148 2.2461-4.1016 4.7852-6.6406 0-1.5625-0.29297-2.2461-0.19531-0.68359-0.19531-1.1719t0.19531-1.4648q0.19531-1.0742 0.48828-2.1484 0.29297-1.1719 0.48828-2.0508 0.19531-0.97656 0.19531-1.2695 0.19532-0.39062 0.39063-1.5625 0.29297-1.1719 0.29297-1.6602l2.0508-2.1484q0-0.29297 0.0977-0.97656 0.0977-0.78125 0.0977-1.4648 0.0977-0.78125 0.19531-1.3672 0.0977-0.58594 0.0977-0.78125 0.58594-1.2695 1.9531-2.2461 1.4648-1.0742 3.125-1.6602 1.7578-0.68359 3.418-0.97656 1.6602-0.39062 2.832-0.39062 1.9531 0 3.9062 1.0742 2.0508 0.68359 4.1992 0.68359l8.7891-1.7578q3.5156 0 6.1523 0.19531 2.7344 0.09766 6.4453 0.87891 2.9297 0.48828 2.9297 3.2227 0 2.5391-1.7578 4.0039-1.7578 1.3672-4.3945 2.3438-2.6367 0.87891-5.6641 1.5625-3.0273 0.58594-5.6641 1.4648-2.6367 0.78125-4.3945 2.1484-1.7578 1.2695-1.7578 3.5156 0 2.0508 0.68359 4.0039 0.68359 1.8555 1.4648 3.8086 0.87891 1.9531 1.5625 4.0039 0.6836 1.9531 0.6836 4.0039l-1.5625 9.1797v19.531q0.48828 0.78125 0.48828 2.0508l0.39062 10.449 2.1484 3.7109v6.25q0 0.19531 0 0.97656 0.0977 0.6836 0.19531 1.5625 0.0977 0.87891 0.19532 1.6602 0.0976 0.78125 0.0976 1.0742 0.19532 1.5625 0.48828 4.5898 0.29297 2.9297 0.6836 6.25 0.48828 3.3203 1.0742 6.3477 0.68359 3.0273 1.6602 4.5898 1.0742 1.8555 2.9297 2.832 1.8555 0.87891 4.0039 1.4648 2.2461 0.58593 4.4922 0.97656 2.2461 0.39062 4.0039 1.1719 1.8555 0.6836 3.0274 1.9531 1.1718 1.2695 1.1718 3.6133 0 1.9531-0.9765 3.0273-0.97658 1.0742-2.4414 1.6602t-3.125 0.68359q-1.6602 0.19532-2.9297 0.19532h-5.0781q-2.0508 0-4.3945-0.0977-2.2461-0.0977-4.2969-0.29297-2.0508-0.19531-3.6133-0.39062-1.5625-0.29297-2.2461-0.6836-0.29297-0.19531-1.9531-0.19531h-1.8555l-10.547 1.6602-9.082-0.97657q-0.39063 0-1.1719 0.39063-0.68359 0.39062-0.8789 0.58594-1.7578 0-3.5156-0.29297t-3.2227-0.97656q-1.3672-0.6836-2.3438-1.7578-0.8789-1.1719-0.8789-2.832 0-2.1484 2.832-2.9297 1.1719-0.0976 2.2461-0.19531 1.0742-0.0977 2.3438-0.0977 3.6133 0 6.8359-0.58594 3.3203-0.6836 5.4688-3.5156 0.0977-0.48828 0.29297-0.8789 0.0977-0.29297 0.19531-0.58594 0.0977-0.29297 0.0977-0.39063 0-0.19531 0.0977-0.48828 0.19532-0.29297 0.39063-0.68359l0.68359-2.3438q0.58594-2.2461 0.78125-4.4922 0.19532-2.2461 0.19532-4.4922 0-2.832-0.29297-5.4688-0.19532-2.7344-0.6836-5.6641l-0.19531-0.8789q-0.19531-0.58594-0.19531-1.4648 0-0.97656 0-2.0508 0-1.4648 0-3.125 0-1.7578-0.19531-3.2227-0.0977-1.5625-0.39063-2.7344-0.29297-1.2695-0.78125-1.8555 0.19531-0.48828 0.19531-0.68359 0-0.29297 0-0.6836v-1.5625l-2.1484-16.016 0.48828-11.816q0-0.8789-0.0977-2.2461-0.0977-1.4648-0.19531-2.832 0-1.4648-0.0977-2.4414-0.0976-1.0742-0.0976-1.0742 0-0.87891-0.0977-2.5391 0-1.6602-0.29297-3.3203-0.29297-1.6602-0.97656-2.9297-0.6836-1.2695-1.8555-1.2695-0.39063 0-0.78125 0.19531-0.29297 0.19531-0.29297 0.39062l-1.4648 6.7383q-1.3672 0.58594-1.6602 1.9531-0.19531 1.3672-0.19531 2.9297 0 0.78125 0 1.5625 0 0.68359-0.19531 1.2695-1.5625 2.832-3.6133 5.1758-1.9531 2.2461-3.5156 4.7852-0.48828 0.48828-0.87891 1.7578-0.39062 1.1719-0.78125 2.6367-0.39062 1.3672-0.68359 2.6367-0.29297 1.1719-0.48828 1.7578-1.2695 3.418-2.9297 6.8359t-3.6133 6.7383l-0.68359 1.4648q-0.19532 0.19532-0.29297 1.5625-0.0977 1.2695-0.29297 1.6602-0.29297 0.19531-0.87891 0.68359-0.48828 0.48828-1.0742 1.0742-0.58593 0.58594-1.0742 1.1719-0.48828 0.48828-0.78125 0.68359l-1.3672 7.0312q-0.29297 1.3672-0.97657 2.5391-0.68359 1.1719-1.4648 2.3438-0.68359 1.0742-1.3672 2.2461-0.68359 1.0742-1.0742 2.3438 0 0.19531-0.0977 0.97656t-0.29297 1.7578q-0.0977 0.97656-0.19531 1.8555-0.0977 0.87891-0.0977 1.1719 0 0.29296-0.39062 1.9531-0.29297 1.5625-0.78125 3.418-0.48829 1.8555-0.97657 3.418-0.39062 1.4648-0.58593 1.6602l-2.3438 2.7344q-0.19532 0.29297-0.19532 1.8555 0 0.78125-0.0976 1.8555-0.0977 0.97656-0.48828 1.8555-0.39063 0.8789-1.0742 1.4648-0.58594 0.58594-1.5625 0.58594-0.87891 0-1.8555-0.6836-0.87891-0.68359-1.8555-1.7578-0.87891-1.0742-1.7578-2.2461-0.78125-1.1719-1.4648-2.2461 0-0.19531-0.39062-0.68359-0.39063-0.58594-0.39063-0.87891-1.8555-3.125-2.4414-6.6406-0.58594-3.5156-1.6602-7.2266-0.19531-0.87891-1.2695-2.832-0.97656-1.9531-2.2461-4.1016-1.2695-2.2461-2.4414-4.2969-1.1719-2.0508-1.7578-3.2227-2.2461-4.3945-4.5898-8.7891t-4.5898-8.7891l-2.1484-6.8359q-2.832-6.3477-5.957-11.816-3.125-5.5664-6.25-11.426-0.19531-0.39062-0.68359-1.0742-0.48828-0.68359-0.6836-0.78125l-2.1484-2.3438q-0.29297-0.58594-0.39063-1.2695 0-0.68359-0.0977-1.2695-0.0977-0.58594-0.48828-0.97656-0.39062-0.39062-1.3672-0.39062-0.48829 0-0.6836 0.09766-0.0976 0.09766-0.39062 0.58594l-1.1719 11.328v4.6875q0 3.3203 0 6.543 0 3.125 0.19531 6.4453 0.29297 6.3477 0.29297 12.988 0.0977 0.29297 0.29297 0.87891 0.19531 0.48828 0.39063 1.3672 0.19531 0.78125 0.48828 2.0508l-0.78125 1.9531q0 1.6602-0.48828 2.9297-0.39063 1.1719-0.39063 3.7109v1.6602l1.8555 3.6133q0.19531 0.39062 0.19531 0.8789t0 1.0742v3.2227q0 2.5391 0.19532 4.9805 0.19531 2.4414 1.4648 4.0039l7.6172 8.5938q0 1.9531 0.97656 2.9297t2.4414 1.5625q1.4648 0.58594 3.125 0.87891 1.7578 0.29296 3.2226 0.8789 1.4648 0.48828 2.4414 1.4648 0.97656 0.97656 0.97656 2.7344 0 0.29297-0.0977 0.87891 0 0.48828-0.19531 1.0742-0.0976 0.48828-0.39062 0.8789-0.29297 0.39063-0.6836 0.39063h-9.2776l-2.5391-0.97657h-2.3438q-2.1484 0-4.1016-0.19531-1.8555-0.29297-3.8086-0.58594-1.8555-0.29296-3.9062-0.48828-1.9531-0.29297-4.2969-0.29297-0.97657 0-1.9531 0.87891-0.97656 0.78125-2.0508 1.1719-2.5391 0.19531-5.1758 0.68359t-5.2734 0.48828q-0.78125 0-1.8555 0.19531-1.0742 0.29297-2.5391 0.29297-0.68359 0-1.5625-0.0977-0.78125-0.0977-1.5625-0.6836-2.4414-0.97656-2.4414-3.9062z"/><path d="m1014.7 231.42q0-0.87891 0-1.5625 0.098-0.6836 0.5859-1.7578 0.4883-2.2461 2.0508-3.7109 1.6602-1.4648 4.9805-2.4414 0.293-0.0977 0.9765-0.29297 0.6836-0.0977 1.3672-0.19531 0.6836-0.0977 1.1719-0.19531 0.586 0 0.6836 0l3.6133 0.68359 2.1484-0.68359q0.293 0 0.8789-0.0977 0.586 0 1.6602 0 1.7578 0 2.3437-0.0977 0.6836-0.0977 1.0743-0.58593 0.7812-1.1719 1.2695-2.0508 0.4883-0.8789 0.7812-1.7578 0.3907-0.78125 0.586-1.7578 0.2929-0.87891 0.5859-2.2461 0-0.0977 0.098-0.6836 0.098-0.48828 0.1953-1.1719 0.098-0.6836 0.1953-1.2695 0.098-0.58594 0.1953-0.87891 0-0.39063 0.4883-1.4648 0.4883-1.0742 1.0742-2.2461 0.5859-1.1719 1.0742-2.2461 0.586-0.97656 0.8789-1.4648l-0.6836-4.1016q1.0743-1.7578 1.6602-3.2226 0.5859-1.4648 0.5859-3.5156 0-0.29297-0.098-0.78125-0.098-0.39062-0.098-0.58594 0-0.78125-0.098-1.9531 0-1.0742-0.098-2.0508-0.098-1.0742-0.1953-1.8555-0.098-0.78125-0.098-0.87891 0-0.29297-0.3906-1.1719-0.3906-0.97657-0.8789-2.0508-0.3906-1.0742-0.8789-2.0508-0.3906-0.97656-0.3906-1.3672-0.098-0.19532-0.3906-1.1719-0.293-0.97656-0.6836-2.0508-0.293-1.1719-0.586-2.1484-0.1953-0.97656-0.1953-1.1719l-3.125-5.2734q0-0.0977-0.098-0.78125-0.098-0.68359-0.1954-1.4648-0.098-0.78125-0.2929-1.4648-0.098-0.78125-0.1953-0.97656 0-0.87891-0.1954-2.1484-0.1953-1.3672-0.2929-1.3672-0.098-0.29297-0.586-0.78125-0.3906-0.48829-0.9765-0.97657-0.4883-0.48828-0.9766-0.8789-0.4883-0.39063-0.4883-0.48828l-1.3672-3.5156-3.2226-4.5898-3.6133-9.2774q-0.098-0.19531-0.5859-1.0742-0.3907-0.97656-0.3907-1.0742-0.1953-0.19532-0.5859-0.48829-0.3906-0.39062-0.3906-0.58593-0.098-0.0977-0.1953-0.87891-0.098-0.78125-0.1953-1.6602 0-0.8789-0.098-1.5625 0-0.78125 0-0.97656-0.3906-1.5625-1.1719-3.3203-0.7812-1.8555-1.6601-3.6133-0.8789-1.8555-1.8555-3.6133-0.8789-1.7578-1.5625-3.2227 0-0.19531-0.1953-0.97656-0.1953-0.87891-0.3906-1.0742 0-0.29297-0.4883-0.78125-0.3906-0.58594-0.8789-0.78125-2.8321-2.2461-6.0547-3.5156-3.125-1.2695-6.543-2.9297l-0.8789-1.2695q-0.3906-0.78125-1.1719-1.1719-0.8789-0.39062-0.8789-1.0742 0-3.418 1.2696-4.3945 1.1718-0.97656 3.0273-0.97656 1.4648 0 2.832 0.48828 1.4649 0.48828 3.0274 1.3672 0.2929 0 1.1719-0.09766 0.8789-0.09766 2.0507-0.09766 1.0743 0 2.0508 0.09766 1.0742 0.09766 1.4649 0.09766l2.539 0.97656h2.5391q0.098 0 0.7812-0.09766 0.7813-0.19531 1.5625-0.29297 0.8789-0.19531 1.5625-0.29297 0.6836-0.19531 0.8789-0.29297 0.586-0.29297 1.5625-0.48828 1.0743-0.29297 2.0508-0.48828 0.9766-0.19531 1.6602-0.29297 0.7812-0.09766 0.9765-0.09766h4.3946l2.6367-0.48828q0.8789 0 2.0508 0.39062 1.2695 0.29297 2.2461 0.87891 1.0742 0.58594 1.7578 1.3672 0.7812 0.68359 0.7812 1.3672 0 0.78125-0.1953 2.3437-0.1953 1.4648-0.8789 2.2461-1.5625 1.6602-3.3203 2.3438-1.6602 0.68359-2.4414 0.8789l-1.6602 0.48829q-0.6836 0.29296-1.5625 0.19531-0.7812-0.19531-1.4648 0.48828 0.098 0.78125 0.3906 1.9531 0.293 1.0742 0.6836 2.1484t0.6836 1.9531q0.293 0.78125 0.293 0.8789 0.098 0.97657 0.4883 1.7578 0.4882 0.78125 0.9765 1.5625t0.9766 1.5625 0.7812 1.6602l1.1719 6.25q0.1953 1.3672 0.9766 2.6367 0.7812 1.1719 1.6601 2.3438 0.8789 1.0742 1.7578 2.3438 0.8789 1.1719 1.1719 2.5391 0 0.0977 0 0.87891 0.098 0.78125 0.098 1.6602 0.098 0.8789 0.1953 1.6602 0.098 0.78125 0.1953 0.87891 0 0.0976 0.5859 0.97656 0.586 0.87891 0.7813 0.97656 0.098 0.19532 0.4883 1.0742 0.3906 0.87891 0.6836 1.1719l1.4648 3.0273q0.1953 0.68359 0.6836 1.7578 0.4883 0.97657 0.8789 0.97657 0.6836 1.0742 1.4648 1.5625 0.879 0.39062 1.5625 0.39062 0.4883 0 1.3672-0.39062 0.8789-0.48829 1.3672-1.5625 0.293-0.39063 0.6836-0.78125 0.7813-0.78125 1.1719-1.0742l0.1953-0.58594q0.098-0.19531 0.1953-0.39063 0.098-0.19531 0.098-0.39062 1.1718-2.9297 2.2461-5.957 1.0742-3.0274 2.1484-6.3477 0-0.29297 0.1953-1.2695 0.1953-1.0742 0.6836-1.4648 0-0.0977 0-0.58594 0.098-0.48828 0.098-1.0742 0.098-0.68359 0.1953-1.1719 0.098-0.58594 0.1953-0.6836l1.4648-4.1016q0.098-0.0977 0.1953-0.58594 0.098-0.48828 0.1954-0.97656 0.098-0.58594 0.098-0.97656 0.098-0.48828 0.098-0.6836 0.2929-0.97656 0.8789-1.9531 0.6836-0.97656 1.2695-1.8555t1.0742-1.7578q0.4883-0.97657 0.4883-2.0508-0.1953-0.39063-0.5859-1.0742-0.293-0.78125-0.4883-0.87891v-4.1016q0-0.19531-0.7813-1.0742-0.6836-0.87891-1.0742-1.0742t-1.1719-0.48828q-0.6835-0.39063-1.5625-0.68359-0.8789-0.29297-1.7578-0.48829-0.7812-0.29296-1.2695-0.39062-0.9766 0-1.4648-0.29297-0.3907-0.39062-0.4883-0.39062l-3.2227-2.3438q-0.4883-1.3672-0.4883-2.2461 0-1.2695 0.4883-2.2461 0.4883-1.0742 1.1719-2.1484 1.2695-0.68359 2.3437-0.87891 1.1719-0.29297 2.0508-0.29297 0.8789-0.09766 1.6602-0.19531 0.7812-0.09766 1.3672-0.48828l2.3437-0.29297q0.1953 0 1.0742 0.09766 0.9766 0 2.0508 0.09766t1.9531 0.19531q0.9766 0 1.1719 0.09766l3.2227 0.68359q2.2461 0 4.0039-0.68359 1.8555-0.68359 4.1015-1.3672h2.2461q0-0.19531 0.8789-0.29297 0.879-0.19531 1.2696-0.19531 0-0.19531 0.1953-0.19531 0.293 0 0.4883 0 0.8789 0 2.3437 0.39062 1.5625 0.39062 3.0274 1.0742 1.4648 0.68359 2.539 1.5625 1.0742 0.87891 1.0742 1.8555 0 1.1719-0.6835 1.6602-0.6836 0.48828-1.3672 1.2695l-3.711 3.0273q-1.1718 1.0742-2.3437 1.6602-1.1719 0.48828-2.4414 0.78125-1.1719 0.29297-2.5391 0.48828-1.3672 0.19532-2.832 0.58594-1.6602 2.5391-2.8321 5.1758-1.0742 2.6367-2.3437 5.1758 0 0.48829-0.1953 1.2695-0.1953 0.68359-0.3906 0.8789 0 0.0977-0.098 0.58594 0 0.39062-0.098 0.97656-0.098 0.48828-0.1953 0.97656 0 0.48829-0.098 0.48829 0 0.19531-0.3906 0.68359-0.293 0.48828-0.6836 1.1719-0.3907 0.58594-0.7813 1.1719-0.293 0.48828-0.293 0.58594v5.0781q-0.098 0.0977-0.3906 0.6836-0.293 0.48828-0.6836 1.1719-0.2929 0.58594-0.6836 1.0742-0.2929 0.48828-0.4883 0.58594-1.3671 2.5391-3.2226 5.4688-1.8555 2.9297-2.6367 6.0547v3.5156q0 0.19531-0.3907 1.0742-0.2929 0.78125-0.4882 0.78125-1.0743 2.0508-1.3672 3.8086-0.293 1.7578-1.1719 3.418l-2.832 5.7617q-0.3907 1.9531-0.4883 4.0039-0.098 2.0508-0.098 4.1992 0 2.0508-0.098 4.1016t-0.3906 4.1016q-0.1954 2.4414-1.5625 4.7852-1.3672 2.3438-2.4415 4.4922-0.1953 0.19532-0.5859 0.48828-0.293 0.39063-0.293 0.48829-0.3906 0.58593-0.7812 1.8555-0.1953 0.58594-0.3906 1.2695-0.098 0.58593-0.1953 1.8555-0.098 1.2695-0.1954 2.6367 0 1.3672-0.098 2.5391 0 1.2695 0 1.7578-0.9766 0.78125-1.4649 2.2461-0.3906 1.4648-0.6836 3.2227-0.1953 1.7578-0.3906 3.418-0.098 1.7578-0.4883 2.9297l-2.7343 3.5156q-0.1953 0.19531-0.3907 1.2695-0.098 1.1719-0.098 1.4648-0.293 0.29297-0.6836 0.97657-0.3906 0.58593-0.9766 1.6602-0.5859 1.0742-1.3672 2.9297 0 0.0977-0.1953 0.58594-0.1953 0.58594-0.4883 1.1719-0.2929 0.6836-0.5859 1.2695-0.1953 0.58594-0.293 0.6836-0.3906 1.3672-1.1718 1.7578-0.6836 0.39063-1.6602 1.2695-0.5859 0.48828-0.8789 0.78125-0.293 0.39063-0.4883 0.6836-0.1953 0.29296-0.4883 0.58593-0.1953 0.39063-0.6836 0.97657-1.3671 1.7578-3.125 2.0508-1.7578 0.39062-3.7109 0.97656l-1.9531 1.5625q-1.1719 0.39062-2.2461 0.39062-1.0742 0.0977-2.0508 0.0977-1.8555 0-3.9062-0.68359-2.0508-0.58594-3.8086-1.7578-1.7579-1.1719-2.9297-2.832-1.1719-1.6602-1.1719-3.7109z"/></g><text transform="translate(-266.13 -43.714)" fill="#000000" font-family="sans-serif" font-size="40px" style="line-height:1.25;shape-inside:url(#rect2535);white-space:pre" xml:space="preserve"/><g transform="translate(-366.84 -734.86)" style="shape-inside:url(#rect2547);white-space:pre" aria-label="tea"><path d="m748.21 1367.1-1.1719-19.531 1.1719-20.312v-5.8594q0.19532-0.9766 0.58594-2.3438 0.39063-1.3672 0.39063-2.3437 0-5.6641-1.7578-11.524-1.7578-6.0546-2.7344-11.719-1.9531-1.3672-5.6641-1.9531-3.5156-0.586-7.0312-1.3672-3.5156-0.9766-6.25-2.7344-2.5391-1.7578-2.5391-5.4687 0-4.1016 2.7344-6.0547 2.7344-2.1485 6.4453-3.5157 3.9062-1.5625 7.8125-2.7343 4.1016-1.1719 6.6406-3.5157 2.5391-2.1484 5.6641-5.2734t4.4922-4.8828q1.5625-3.125 4.1016-7.8125 2.7344-4.6875 5.8594-8.9844 3.125-4.4922 6.6406-7.6172 3.5156-3.3203 7.0312-3.3203 2.3438 0 3.7109 1.3672 1.5625 1.1719 2.3438 3.125 0.97656 1.7578 1.3672 3.9063 0.39063 2.1484 0.58594 4.1015v22.656l0.97656 1.3672h9.1797q4.8828 0 8.9844-0.586 4.1016-0.7812 7.6172-1.5625 3.7109-0.9765 7.0312-1.5625 3.5156-0.7812 7.4219-0.7812 5.4688 0 9.1797 4.1015 3.7109 4.1016 3.7109 9.7657 0 4.4921-1.5625 7.4218-1.3672 2.9297-4.1016 4.6875-2.7344 1.7578-6.4453 2.5391-3.7109 0.5859-8.2031 0.5859l-12.891-0.9765-9.7656 0.9765-9.375-0.9765q-2.7344 0-5.0781 2.539-2.1484 2.3438-2.1484 4.4922l1.7578 14.648q0 2.7343-0.78125 5.2734t-1.7578 5.2734q-0.97656 2.5391-1.7578 5.2735-0.78125 2.7343-0.78125 5.664v3.5157l1.7578 22.656q-0.58594 1.1719-0.78125 2.3438 0 1.1718 0 2.9296 0 1.3672 0.39063 2.5391 0.39062 1.1719 0.39062 2.1484 0.58594 5.6641 0.58594 11.133 0 4.8828-0.39063 9.375-0.39062 4.4921-1.1719 8.9843 0.19531 0.1953 0.78125 1.1719 0.58594 0.7813 1.1719 1.9531 0.78125 0.9766 1.3672 2.1485 0.58594 0.9765 0.97656 1.1718 1.5625 2.3438 3.5156 3.5157 1.9531 1.1718 3.9062 2.1484 2.1484 0.7813 4.2969 1.7578 2.3438 0.9766 4.4922 2.9297h7.4219q4.4922 0 8.5938-0.9766 4.1016-0.9765 7.8125-1.9531 3.9062-1.1719 7.4219-2.1484 3.7109-0.9766 7.6172-0.9766 2.3438 0 3.5156 2.3438 1.1719 2.3437 1.1719 4.4922 0 1.1718-0.19531 1.9531 0 0.5859-0.39063 1.1719-0.39062 0.5859-1.1719 1.3671-0.58594 0.7813-1.5625 2.1485l-2.7344 3.9062q-0.58594 0.3907-1.9531 1.9532-1.1719 1.5625-2.7344 3.5156-1.5625 1.7578-3.125 3.5156-1.5625 1.5625-2.3438 2.3438-1.9531 2.1484-5.8594 4.1015t-8.2031 3.3203q-4.2969 1.5625-8.3984 2.3438-3.9062 0.7812-6.25 0.7812l-25-5.0781q-3.3203-0.9766-7.4219-2.9297t-8.0078-4.4922q-3.7109-2.7343-6.6406-6.0547-2.7344-3.3203-3.5156-7.2265v-13.477q-0.97657-6.6406-2.3438-12.5-1.1719-6.0547-1.1719-12.5z"/><path d="m865.79 1356.5q0-0.9765 0.39062-3.7109 0.39063-2.9297 0.78125-6.0547 0.58594-3.3203 0.78125-6.25 0.39063-2.9297 0.39063-3.9062 0.78125-9.375 4.1016-19.141 3.5156-9.7656 8.7891-18.75 5.2734-9.1797 12.109-16.797 7.0312-7.6172 15.234-12.891 0.19532-0.3906 1.9531-1.3672 1.9531-0.9765 4.1016-1.9531 2.1484-0.9765 4.1016-1.9531 1.9531-0.9766 2.3438-1.3672 1.3672-0.5859 3.5156-1.9531 2.3438-1.5625 4.6875-2.9297 2.3438-1.5625 4.6875-2.7344t4.2969-1.1719q1.7578 0 2.7344 0.3907 1.1719 0.3906 2.7344 1.1718 3.3203-0.3906 6.25-0.5859 3.125-0.3906 6.25-0.3906 3.3203 0 6.25 0.3906 2.9297 0.1953 6.25 0.5859 0 0 0.78125 0.3907 0.78125 0.1953 1.7578 0.5859 0.97656 0.3906 1.9531 0.7813 0.97656 0.3906 1.5625 0.5859t2.3438 1.1719q1.7578 0.7812 3.9062 1.9531t4.1016 2.1484q1.9531 0.7813 2.7344 0.9766 0 0.1953 1.3672 0.5859 1.3672 0.3907 1.7578 0.3907l7.8125 4.2968 17.578 16.016q0.7813 0.9765 2.3438 5.2734 1.7578 4.1016 3.3203 9.1797 1.7578 4.8828 2.9297 9.375 1.3672 4.4922 1.3672 5.8594 0 2.7343-1.5625 4.4921-1.5625 1.5625-3.711 2.7344-2.1484 0.9766-4.6875 1.5625-2.3437 0.3906-4.1015 0.586h-0.7813q-1.9531 0.1953-6.4453 0.3906-4.2969 0.1953-9.1797 0.3906-4.6875 0-8.9844 0.1953-4.1016 0-5.6641 0-2.1484 0.9766-3.9062 1.1719-1.5625 0.1953-3.3203 0.1953l-13.867-1.3672q-3.9062 0-8.2031 1.3672-4.1016 1.3672-8.0078 1.3672-2.5391 0-5.0781-1.7578-2.3438-1.9531-5.2734-1.9531-0.39062 0-2.1484 0.9765-1.5625 0.7813-2.3438 0.7813l-14.844-0.9766q-3.125 0-5.8594 1.1719-2.7344 1.1719-6.25 4.1015-0.58594 5.0782-0.78125 8.9844-0.19531 3.711-0.19531 8.3985 0 4.1015 0.39062 6.6406 0.58594 2.539 1.5625 4.8828 0.97657 2.1484 2.3438 4.4922 1.3672 2.1484 3.125 5.4687l1.9531 3.711q5.0781 11.133 13.086 17.969 8.0078 6.836 20.703 10.742 0 0.9766 2.7344 1.9531 2.9297 0.7813 6.4453 1.1719 4.1016 0.7813 9.375 0.9766 6.4453 0 13.281-0.7813 6.8359-0.7812 13.281-2.539 6.4453-1.7579 12.109-4.6875 5.8594-2.9297 9.9609-7.2266h3.125q2.3438 0 3.125 0.7812 0.9766 0.586 1.9531 3.711-0.5859 5.664-1.7578 10.156-0.9765 4.2969-2.9297 7.8125-1.7578 3.5157-4.6875 6.6407-2.9296 2.9296-7.6171 6.0546-1.5625 1.1719-2.9297 1.7579-1.3672 0.3906-2.5391 0.7812-1.1719 0.3906-2.5391 1.1719-1.1719 0.7812-2.7344 2.7344l-20.898 10.547-2.3438-0.3906-14.648 2.3438q-16.406 0-29.492-4.6875t-23.438-13.281q-10.156-8.7891-17.773-20.898-7.4219-12.109-12.695-26.758-1.7578-5.2735-2.1484-10.742-0.39062-5.6641-2.5391-11.524zm38.477-53.32q0 0.9766 0.19531 2.9297 0.39063 1.9531 0.97657 3.9063 0.58593 1.9531 1.3672 3.5156t1.5625 1.7578h6.0547l25.977-4.1016 16.602 1.3672q4.2969 0 7.6172-0.7812 3.5156-0.7813 7.6172-1.7578 3.7109-0.586 6.25-0.9766 2.7344-0.5859 4.2969-1.9531 1.7578-1.3672 2.5391-3.5157 0.78125-2.3437 0.78125-6.4453 0-6.8359-3.7109-11.914-3.7109-5.0782-9.375-8.3985-5.4688-3.5156-12.109-5.0781-6.4453-1.7578-12.109-1.7578-1.3672 0-3.9062 0.7812-2.5391 0.586-5.8594 1.7579-3.125 0.9765-6.6406 2.3437-3.3203 1.1719-6.25 2.7344-2.7344 1.3672-4.8828 2.7344-2.1484 1.1718-2.7344 2.1484l-4.1016 8.7891q-1.1719 1.3671-2.9297 2.539-1.7578 1.1719-3.5156 2.5391-1.5625 1.3672-2.7344 3.125-0.97656 1.5625-0.97656 3.7109z"/><path d="m1132.6 1419q-0.7813 0.3907-2.5391 2.3438-1.5625 1.7578-2.539 1.7578l-7.4219 3.7109q-0.3906 0.1953-1.3672 0.9766-0.7813 0.5859-1.9531 1.5625-0.9766 0.7812-1.7578 1.5625-0.7813 0.5859-0.9766 0.5859-0.3906 0.1953-1.5625 0.3907-0.9766 0.1953-2.3438 0.3906-1.1718 0.1953-2.3437 0.3906-0.9766 0-1.5625 0-1.5625 0.3906-2.9297 1.3672-1.1719 0.9766-2.5391 2.3437-1.1718 1.1719-2.7343 2.5391-1.5625 1.1719-3.5157 2.1484h-18.555q-0.9766 0-2.7344-0.3906-1.5625-0.3906-3.5156-0.9765-1.7579-0.586-3.5157-1.3672-1.7578-0.7813-2.7343-1.3672 0-0.3906-1.1719-1.7578-0.9766-1.5625-1.1719-2.5391-0.3906-0.3906-0.5859-0.9766-0.586-0.5859-0.586-1.1718l-5.2734-5.0782q-1.5625-3.125-2.7344-7.8125-0.9765-4.8828-0.9765-8.0078l1.3671-4.1015-1.3671-4.1016v-2.3437q0-0.9766 0.3906-2.5391 0.5859-1.7578 1.1719-3.3203 0.5859-1.7578 1.1718-3.125 0.586-1.5625 0.9766-2.1485 0.1953-0.1953 1.3672-1.3671 1.3672-1.3672 2.9297-2.9297 1.5625-1.7578 2.7343-3.125 1.3672-1.3672 1.7579-1.9532 0.1953 0 1.3671-1.3671 1.3672-1.3672 1.3672-1.7579l0.3907-0.7812q0.1953-0.3906 0.1953-0.7813 3.3203-2.1484 6.4453-4.4921 3.125-2.5391 7.0312-4.2969 0.1953-0.1953 2.7344-1.1719 2.7344-1.1719 5.8594-2.3437 3.3203-1.3672 6.4453-2.3438t4.6875-1.3672q1.9531-0.9765 4.1016-2.539 2.1484-1.5625 4.1015-2.9297 2.1485-1.3672 3.9063-2.3438 1.7578-1.1719 2.9297-1.1719h5.0781q0.1953 0 1.1719-0.5859 0.3906-0.1953 0.9765-0.5859 0.7813-0.1953 3.711-0.586 3.125-0.3906 4.1015-0.3906l2.5391-3.3203q1.3672-0.7813 2.7344-1.1719 1.3671-0.5859 2.539-1.1719 1.1719-0.5859 1.9531-1.5625 0.9766-1.1718 1.5625-3.125 1.3672-4.1015 1.7579-8.5937 0.5859-4.6875 0.5859-8.7891v-4.2968q0-0.3907-1.1719-2.1485t-1.1719-2.539l-2.3437-9.961-4.2969-5.2734-2.1484-4.1016q-0.7813-0.3906-1.5625-1.9531-0.7813-1.5625-0.9766-2.5391-0.3906-1.1718-2.9297-2.1484-2.539-1.1719-5.664-1.9531-3.125-0.9766-6.25-1.3672-2.9297-0.586-4.1016-0.586-0.3906 0-3.125 0-2.5391-0.1953-4.2969-0.1953t-4.8828 0.3907q-2.9297 0.1953-5.664 1.1718-2.7344 0.7813-4.8829 2.3438-1.9531 1.5625-1.9531 4.1015v1.7579q0.1953 0.3906 0.7813 1.7578 0.5859 1.1718 1.1718 2.7343 0.586 1.3672 0.9766 2.7344 0.5859 1.1719 0.5859 1.5625 0 0.7813-0.5859 2.3438-0.3906 1.3672-0.7812 2.9297-1.3672 6.25-3.711 9.5703-2.3437 3.3203-7.4219 6.4453l-2.3437 1.7578q-0.7813 0.5859-1.3672 1.1719h-14.844q-1.7579 0-2.9297-1.3672-1.1719-1.3672-1.9532-3.125-0.7812-1.9531-1.1718-3.711-0.3907-1.9531-0.3907-2.9296 0-1.1719 0.3907-3.125 0.3906-1.9532 1.1718-3.711 0.7813-1.9531 1.5625-3.5156 0.9766-1.7578 1.9532-2.7344 0.5859-1.3672 1.3672-2.3437 0.3906-0.9766 0.7812-1.5625 0.5859-0.586 0.7813-0.7813l3.125-3.125q4.2968-2.7344 7.2265-5.664 2.9297-2.9297 6.836-6.25l13.672-8.9844q1.9532-1.7578 3.5157-2.5391 1.7578-0.9765 3.5156-1.5625 1.7578-0.5859 3.5156-0.9765 1.9531-0.3907 4.4922-1.3672 0.1953 0 0.9766-0.3907 0.9765-0.3906 1.9531-0.7812 0.9765-0.5859 1.9531-0.9766 0.9766-0.3906 1.3672-0.5859 0.9766-0.1953 3.7109-0.7813 2.9297-0.5859 6.0547-1.1718 3.3203-0.586 6.25-0.9766t4.1016-0.3906q0.9765 0 1.7578 0.7812 0.9766 0.586 1.3672 0.586 0.5859 0 1.7578 0.1953 1.1719 0 2.3437 0.1953 1.3672 0.1953 2.3438 0.3906 1.1719 0 1.5625 0.1953 1.1719 0.3907 3.125 1.1719 1.9531 0.5859 3.9062 1.3672 1.9532 0.7812 3.5157 1.3672 1.5625 0.5859 1.9531 0.7812 0.1953 0.1953 0.9766 0.9766 0.7812 0.7812 1.7578 1.9531 1.1718 0.9766 2.1484 1.9531 0.9766 0.9766 1.3672 1.5625 2.1484 3.125 4.2969 5.6641 2.3437 2.5391 3.3203 5.8594 0.9765 1.9531 1.3672 4.2969 0.5859 2.1484 0.9765 4.2968 0.586 2.1485 1.3672 4.1016 0.7813 1.9531 2.5391 3.5156v12.109q0 12.891-0.9766 25.391-0.7812 12.305-1.1719 25.391-0.7812 1.9532-1.3671 3.9063-0.586 1.7578-0.586 4.1016 0 1.7578 0.3906 3.9062 0.586 2.1484 0.586 3.125l-1.7578 3.7109q-0.1953 0.7813-0.1953 1.5625v2.1485q0 2.9297 0.1953 6.25t0.9765 6.6406q0.7813 3.3203 2.1485 6.25 1.5625 2.9297 4.2968 4.8828 0.9766 0.7813 2.5391 2.3438 1.7578 1.3672 2.5391 1.3672h0.7812q1.9531 0 4.4922-0.586 2.5391-0.7812 5.2734-1.5625 2.7344-0.9765 5.4688-1.7578 2.9297-0.7812 5.6641-0.7812 3.7109 0 3.7109 2.3437 0 6.25-2.5391 12.109-2.3437 5.8594-6.6406 10.547-4.2969 4.4921-9.9609 7.4218-5.6641 2.7344-12.305 2.7344t-12.891-0.5859q-6.25-0.7813-13.672-3.5157l-1.3672-0.9765q-0.3906-0.3906-1.9531-2.3438-1.3672-2.1484-3.125-4.4922-1.5625-2.3437-2.9297-4.2968-1.3672-2.1485-1.5625-2.7344l-4.6875-4.1016h-1.3672zm-44.141-29.297q0 3.125 0.9765 7.2265 1.1719 4.1016 3.3203 7.8125 2.1485 3.5156 5.2735 6.0547t7.0312 2.5391q0.7813 0 1.3672-0.1953 0.5859-0.1954 3.3203-1.5625l17.774-1.5625q0.5859-0.3907 1.7578-1.5625 1.3672-1.3672 2.539-2.7344 1.3672-1.3672 2.3438-2.5391 1.1719-1.1719 1.5625-1.7578 0.1953 0 0.5859-1.1719 0.586-1.1718 1.3672-2.9297 0.7813-1.7578 1.3672-3.7109 0.7812-1.9531 1.3672-3.5156 0.3906-0.9766 0.5859-2.9297 0.3906-1.9531 0.3906-2.1484-0.1953-2.1485-0.3906-4.2969-0.1953-2.1485-0.1953-4.2969 0-1.9531 0.1953-3.5156 0.1953-1.7578 0.3906-3.5156l1.3672-4.2969v-3.5156q0-3.3204-2.1484-6.0547-2.1484-2.7344-6.25-2.7344-3.3203 0-5.6641 1.5625-2.1484 1.3672-5.0781 3.5156-0.9766 0.586-3.9062 2.1485-2.9297 1.3671-6.25 2.9296-3.125 1.3672-6.0547 2.7344-2.7344 1.3672-3.711 1.7578l-3.7109 1.9532q-0.3906 0-1.5625 0.3906t-1.1719 0.5859l-2.7344 5.0781-4.6875 4.6875q-0.9765 2.1485-1.1718 5.0782-0.1953 2.7343-0.1953 4.4922z"/></g><g transform="translate(-353.99 -356.57)" fill="#198754" style="shape-inside:url(#rect2555);white-space:pre" aria-label="herbal"><path d="m417.66 786.38q0-0.41667 1.0417-1.875 0.625-0.625 1.25-1.4583l6.0417-2.5q3.3333-1.0417 6.0417-1.4583 2.9167-0.625 5.4167-1.0417 2.5-0.41667 4.7917-1.25 2.2917-1.0417 4.5833-3.125 0.41667-0.20833 1.25-1.4583 0.83334-1.25 1.6667-2.7083 0.83333-1.4583 1.4583-2.7083 0.625-1.4583 0.83334-2.0833v-3.3333l-1.4583-8.9583 2.9167-13.333q0-2.7083-0.83333-4.7917-0.625-2.2917-0.625-5.2083 0-0.41667 0.41667-1.6667 0.41666-1.25 0.83333-2.5 0.41667-1.4583 0.83333-2.5 0.41667-1.25 0.41667-1.25l-1.0417-20.625q0-6.25 0.625-11.458 0.83334-5.4167 1.4583-10.833v-7.7083q0-0.20833 0.41666-1.25 0.62501-1.25 0.62501-2.9167 0-2.2917-1.4583-3.75-1.4583-1.4583-1.6667-3.9583-0.625-4.1667-1.25-7.0833t-0.625-6.25l2.9167-63.333-0.41667-5.4167q-0.20833-3.125-1.25-6.25-0.83333-3.125-1.875-6.25-0.83333-3.3333-1.6667-6.4583-0.625-3.3333-0.625-6.6667l1.875-9.7917q-0.625-0.62501-1.6667-2.5-0.83334-1.875-1.6667-3.9583-0.625-2.0833-1.4583-3.9583-0.625-1.875-1.0417-2.5l-11.25-8.75q-1.875-0.41666-2.5-1.0417-2.2917-1.25-3.5417-2.0833-1.0417-0.83333-1.875-1.6667-0.625-0.83333-1.4583-2.0833t-2.5-3.75q-0.20833-1.0417-0.20833-1.25 0-0.41666 0-1.4583 0-0.83334 0.20833-1.6667 0.20833-1.0417 0.83333-1.4583 0.625-1.0417 2.5-2.0833 1.875-1.25 3.75-2.2917 2.0833-1.0417 3.75-1.6667 1.6667-0.625 1.875-0.83333 0.20834 0 1.25-0.20833 1.0417-0.20834 2.0833-0.41667 1.25-0.41667 2.2917-0.625 1.0417-0.41667 1.25-0.625 0.20833 0 1.875-0.20833 1.875-0.41667 2.5-0.83334 7.2917-2.7083 14.167-5 7.0833-2.2917 15.625-3.9583 4.7917 1.4583 7.7083 3.75 2.9167 2.0833 5.625 6.25v35q0 0.41666 0.20834 1.6667 0.20833 1.25 0.41666 2.7083 0.41667 1.4583 0.625 2.9167 0.20834 1.25 0.20834 1.6667l-3.9583 17.708q0 1.875 0.625 3.3333 0.625 1.25 1.25 2.5 0.83334 1.25 1.4583 2.7083 0.625 1.25 0.625 3.125 0 3.75-2.0833 6.4583-1.875 2.7083-1.875 6.0417v0.83333q0.625 2.9167 0.625 5.8333 0.20834 2.7083 0.20834 5.8333 0 2.9167 0.20833 6.0417 0.41667 2.9167 1.4583 6.0417 1.875 5.2083 3.75 8.5417 1.875 3.3333 5.625 5.8333 2.5 0 4.1667-0.83333 1.875-1.0417 3.125-2.5 1.4583-1.4583 2.7083-2.9167 1.4583-1.4583 3.3333-2.5l3.9583-2.0833h14.792q7.0833-0.83333 14.375-3.125t14.792-2.2917q3.5417 0 6.25 2.0833 2.7083 1.875 6.0417 3.3333 1.0417 0.41667 3.125 0.83333 2.2917 0.41667 2.7083 1.25 2.7083 1.0417 6.0417 3.125 3.5417 1.875 6.6667 4.5833 3.125 2.5 5.8333 5.8333 2.7083 3.125 4.1667 6.4583 0.20833 0.20833 0.83334 3.125 0.625 2.9167 0.625 4.375v14.375l2.5 7.5q0 3.5417-0.20834 5.625-0.20833 1.875-1.25 4.1667v27.5l2.9167 5.625q0 0.625-0.20833 1.6667t-0.41667 2.0833q-0.20833 1.0417-0.625 1.875-0.20833 0.83333-0.20833 0.83333 0 0.41667-0.20834 2.0833-0.20833 1.4583-0.41666 3.3333-0.20834 1.875-0.41667 3.5417-0.20833 1.4583-0.41667 1.875l0.41667 7.9167q0.20833 1.4583 1.4583 4.5833 1.4583 2.9167 2.0833 3.75v22.083l1.0417 9.375q0.20833 2.0833 0.625 3.3333 0.41666 1.0417 1.25 1.875 0.83333 0.83333 2.0833 1.6667 1.4583 0.83333 3.5417 2.0833l3.9583 0.625q2.2917 0.625 3.75 0.83334 1.4583 0.20833 2.7083 0.625 1.25 0.20833 2.5 0.83333 1.4583 0.41667 3.75 1.4583 0.41667 2.2917 1.6667 3.125 1.25 0.625 1.25 1.0417 0 0.62501 0.625 2.5 0.83334 1.875 0.83334 2.9167 0 1.6667-1.0417 2.9167-0.83334 1.25-2.2917 2.5h-0.41667q-1.25 1.0417-3.3333 1.875-1.875 1.0417-4.1667 1.0417h-5.8333q-4.1667 0-7.7083-1.0417-3.3333-1.0417-6.6667-1.0417l-12.5 2.0833h-25.625l-15.833-2.9167q-2.9167 0-5.625-0.20834-2.7083-0.41666-5-1.4583-1.6667-0.83334-2.0833-2.5-0.41667-1.875-0.41667-3.9583v-1.875q0-2.5 1.6667-5 1.875-2.5 5.2083-2.5l5.4167-1.4583q1.875-0.625 3.9583-0.83334 2.2917-0.41666 4.375-1.25 2.2917-1.0417 4.375-2.9167 2.0833-2.0833 3.9583-6.25 0.20833-0.20833 0.41667-1.25 0.41666-1.0417 0.625-2.0833 0.20833-1.0417 0.20833-1.875 0.20833-1.0417 0.20833-1.25 0.20834-2.7083 0.20834-4.5833 0-2.0833 0.41666-2.7083-0.20833 0.20833 0-0.20833 0.20834-0.625 0.41667-1.25 0.41667-0.83334 0.625-1.6667 0.41667-0.83334 0.41667-1.4583l-2.0833-4.375v-10q-0.41666-3.9583-1.875-7.0833-1.4583-3.3333-1.4583-6.6667v-5q0.83333-8.125 2.0833-17.083 1.25-9.1667 1.25-17.5 0-4.1667-0.83333-8.75-0.625-4.7917-2.5-9.375-0.41667-0.625-0.625-1.25-0.41667-1.25-0.41667-1.6667v-5.4167q-0.20833-0.83333-0.83333-2.2917-0.41667-1.6667-1.25-3.3333-0.62501-1.6667-1.4583-2.9167-0.625-1.4583-0.83333-1.875-0.20834 0-1.6667-0.625-1.4583-0.625-3.125-1.4583-1.6667-0.83333-3.5417-1.6667-1.6667-0.83334-2.5-1.25l-3.9583-1.0417q-0.625-0.83334-2.2917-1.875-1.4583-1.25-3.3333-2.5-1.6667-1.25-3.3333-2.2917-1.4583-1.25-2.0833-2.0833h-32.5q-1.0417 0-2.2917 1.0417-1.0417 0.83333-2.0833 2.0833-0.83334 1.0417-1.6667 2.0833-0.83334 1.0417-1.25 1.25-3.125 4.375-5.2083 8.125-1.875 3.5417-2.9167 9.1667l4.1667 42.917q0 1.0417-0.20833 2.2917-0.20834 1.0417-0.83334 2.7083-0.41666 2.0833-0.625 3.75 0 1.6667 0 3.9583l0.20834 11.458 2.5 9.7917q1.25 8.125 1.25 16.25 0 9.375-1.25 18.958 1.0417 1.4583 1.6667 2.2917 0.625 0.83333 1.25 2.0833 0.83333 1.0417 1.875 2.9167t3.3333 5.4167q1.25 1.6667 2.5 2.5 1.4583 0.625 2.9167 0.83334 1.4583 0.20833 3.125 0.41666 1.6667 0 3.5417 0.625 2.2917 0.41667 2.2917 4.5833 0 1.25-0.41667 3.125-0.20834 1.6667-0.83334 3.3333-0.625 1.4583-1.4583 2.7083-0.83333 1.0417-1.6667 1.25-2.9167 0.625-5 1.875-1.875 1.4583-5 1.4583-4.375 0-7.9167-0.20833t-5.8333-0.20833h-8.3333l-18.333-1.0417q-1.4583-0.83334-2.2917-0.83334-0.625-0.20833-1.6667-0.20833-2.9167 0-5.4167 0.83333-2.5 0.625-5.2083 1.4583-2.5 0.83333-5.4167 1.4583-2.7083 0.83334-6.0417 0.83334l-9.5833 0.83333q-2.2917-2.5-3.75-6.875-1.4583-4.375-1.4583-8.9583z"/><path d="m652.45 706.58q0-1.0417 0.41667-3.9583 0.41667-3.125 0.83333-6.4583 0.62501-3.5417 0.83334-6.6667 0.41667-3.125 0.41667-4.1667 0.83333-10 4.375-20.417 3.75-10.417 9.375-20 5.625-9.7917 12.917-17.917 7.5-8.125 16.25-13.75 0.20833-0.41666 2.0833-1.4583 2.0833-1.0417 4.375-2.0833 2.2917-1.0417 4.375-2.0833 2.0833-1.0417 2.5-1.4583 1.4583-0.625 3.75-2.0833 2.5-1.6667 5-3.125 2.5-1.6667 5-2.9167t4.5833-1.25q1.875 0 2.9167 0.41666 1.25 0.41667 2.9167 1.25 3.5417-0.41667 6.6667-0.625 3.3333-0.41667 6.6667-0.41667 3.5417 0 6.6667 0.41667 3.125 0.20833 6.6667 0.625 0 0 0.83333 0.41666 0.83334 0.20834 1.875 0.625 1.0417 0.41667 2.0833 0.83334 1.0417 0.41666 1.6667 0.625 0.625 0.20833 2.5 1.25 1.875 0.83333 4.1667 2.0833t4.375 2.2917q2.0833 0.83334 2.9167 1.0417 0 0.20833 1.4583 0.625 1.4583 0.41667 1.875 0.41667l8.3333 4.5833 18.75 17.083q0.83334 1.0417 2.5 5.625 1.875 4.375 3.5417 9.7917 1.875 5.2083 3.125 10 1.4583 4.7917 1.4583 6.25 0 2.9167-1.6667 4.7917-1.6667 1.6667-3.9583 2.9167-2.2917 1.0417-5 1.6667-2.5 0.41666-4.375 0.625h-0.83333q-2.0833 0.20833-6.875 0.41667-4.5833 0.20833-9.7917 0.41666-5 0-9.5833 0.20834-4.375 0-6.0417 0-2.2917 1.0417-4.1667 1.25-1.6667 0.20833-3.5417 0.20833l-14.792-1.4583q-4.1667 0-8.75 1.4583-4.375 1.4583-8.5417 1.4583-2.7083 0-5.4167-1.875-2.5-2.0833-5.625-2.0833-0.41666 0-2.2917 1.0417-1.6667 0.83333-2.5 0.83333l-15.833-1.0417q-3.3333 0-6.25 1.25t-6.6667 4.375q-0.625 5.4167-0.83333 9.5833-0.20834 3.9583-0.20834 8.9583 0 4.375 0.41667 7.0833 0.625 2.7083 1.6667 5.2083 1.0417 2.2917 2.5 4.7917 1.4583 2.2917 3.3333 5.8333l2.0833 3.9583q5.4167 11.875 13.958 19.167 8.5417 7.2917 22.083 11.458 0 1.0417 2.9167 2.0833 3.125 0.83333 6.875 1.25 4.375 0.83333 10 1.0417 6.875 0 14.167-0.83333 7.2917-0.83333 14.167-2.7083 6.875-1.875 12.917-5 6.25-3.125 10.625-7.7083h3.3333q2.5 0 3.3333 0.83334 1.0417 0.625 2.0833 3.9583-0.625 6.0417-1.875 10.833-1.0417 4.5833-3.125 8.3333-1.875 3.75-5 7.0833-3.125 3.125-8.125 6.4583-1.6667 1.25-3.125 1.875-1.4583 0.41667-2.7083 0.83334-1.25 0.41666-2.7083 1.25-1.25 0.83333-2.9167 2.9167l-22.292 11.25-2.5-0.41666-15.625 2.5q-17.5 0-31.458-5-13.958-5-25-14.167-10.833-9.375-18.958-22.292-7.9167-12.917-13.542-28.542-1.875-5.625-2.2917-11.458-0.41667-6.0417-2.7083-12.292zm41.042-56.875q0 1.0417 0.20834 3.125 0.41666 2.0833 1.0417 4.1667 0.625 2.0833 1.4583 3.75 0.83333 1.6667 1.6667 1.875h6.4583l27.708-4.375 17.708 1.4583q4.5833 0 8.125-0.83333 3.75-0.83334 8.125-1.875 3.9583-0.625 6.6667-1.0417 2.9167-0.625 4.5833-2.0833 1.875-1.4583 2.7083-3.75 0.83334-2.5 0.83334-6.875 0-7.2917-3.9583-12.708t-10-8.9583q-5.8333-3.75-12.917-5.4167-6.875-1.875-12.917-1.875-1.4583 0-4.1667 0.83334-2.7083 0.625-6.25 1.875-3.3333 1.0417-7.0833 2.5-3.5417 1.25-6.6667 2.9167-2.9167 1.4583-5.2083 2.9167-2.2917 1.25-2.9167 2.2917l-4.375 9.375q-1.25 1.4583-3.125 2.7083t-3.75 2.7083q-1.6667 1.4583-2.9167 3.3333-1.0417 1.6667-1.0417 3.9583z"/><path d="m847.66 785.13q0-1.6667 2.0833-2.2917 2.2917-0.83334 3.3333-1.875 2.2917-2.5 5.2083-3.5417 3.125-1.0417 4.375-1.6667 1.6667-1.0417 2.2917-2.5 0.625-1.6667 2.9167-2.5l5-1.6667q1.25 0 2.0833-1.875 0.83334-1.875 1.0417-2.0833-0.20833-1.0417-0.20833-3.5417t0-4.7917q0-2.9167 0-5.2083 0-2.5 0.20833-4.1667l1.25-6.25v-32.083q0-0.41667 0.20833-1.875 0.20834-1.4583 0.41667-3.125 0.20833-1.6667 0.41667-3.125 0.20833-1.4583 0.41666-1.875v-1.4583q-0.20833-1.25-0.41666-3.75-0.20834-2.7083-0.41667-5.2083-0.20833-2.7083-0.41667-4.7917-0.20833-2.0833-0.20833-2.5-0.20833-0.625-0.41667-2.0833-0.20833-1.4583-0.41666-3.125-0.20834-1.6667-0.41667-3.125 0-1.4583 0-2.0833-0.625-2.9167-2.0833-5.625-1.4583-2.7083-3.3333-5-1.875-2.5-3.9583-4.7917-2.0833-2.5-3.9583-4.7917-0.20834 0-1.4583-1.4583-1.25-1.6667-1.25-2.0833l-12.292-11.458 10-10.208q0.41667-0.20833 1.6667-0.83333 1.4583-0.625 2.9167-1.25 1.6667-0.83333 3.125-1.4583 1.6667-0.625 2.5-0.83333 0.41667-0.41667 1.6667-0.625 1.4583-0.41667 2.9167-0.625 1.6667-0.20834 2.9167-0.20834 1.4583-0.20833 1.875-0.20833 3.9583-1.25 7.0833-3.3333 3.3333-2.2917 6.4583-4.375 3.125-2.2917 6.25-3.9583 3.3333-1.6667 7.5-1.6667h3.3333q0.20834 0.20834 2.2917 2.2917 2.0833 1.875 3.125 2.7083 1.4583 2.2917 1.4583 5.8333 0 3.3333 0.20833 6.6667 0.20834 3.125 1.4583 5.4167t5.4167 2.2917q0.625 0 1.25 0 0.83333 0 0.83333-0.41667 0.83334-0.20833 2.2917-0.83333 1.4583-0.83334 2.9167-1.875 1.6667-1.0417 2.9167-2.0833 1.4583-1.0417 2.0833-1.6667l8.5417-6.4583q0.41666-0.41666 2.7083-1.875 2.2917-1.6667 3.125-2.5 0.20834 0 1.6667 0 1.4583-0.20833 2.9167-0.20833 1.6667-0.20834 3.125-0.41667 1.4583-0.20833 2.0833-0.41667 0.20833 0 1.25-0.41666 1.25-0.41667 2.5-0.83334 1.4583-0.41666 2.5-0.83333 1.0417-0.41667 1.25-0.41667h2.2917q4.7917 0 7.7083 2.9167 3.125 2.9167 5.625 6.4583 1.4583 1.875 1.6667 5.4167 0.41667 3.3333 1.4583 5 0 0.625 0.625 1.25l0.83333 0.83334q0 10-2.9167 17.917-2.7083 7.7083-9.375 12.5-1.875 0.41666-4.375 0.83333-2.5 0.20834-4.1667 0.20834-4.375 0-6.4583-0.41667-2.0833-0.625-3.125-1.6667-1.0417-1.0417-1.875-2.7083-0.625-1.6667-2.2917-3.9583-1.4583-1.875-3.5417-2.9167-1.875-1.25-3.75-1.6667-1.875-0.625-3.5417-0.83333-1.4583-0.20834-1.875-0.20834l-8.9583-1.4583-7.5 2.0833-2.5 3.3333q-1.0417 0.20833-2.9167 2.0833-1.875 1.6667-3.75 3.9583-1.6667 2.0833-2.9167 4.5833-1.25 2.2917-1.25 3.75l-1.0417 15 1.0417 5.8333v10.833q0 0.41667 0.20833 2.5 0.41667 1.875 0.83334 2.9167l-1.4583 18.75 1.4583 7.0833q0 1.4583-0.83334 2.9167-0.625 1.4583-0.625 3.75l1.4583 7.0833-1.4583 7.7083q0 0.20833 0 0.625 0 0.41666 0.41667 0.41666 0.20833 1.25 1.25 3.5417 1.25 2.2917 2.5 4.7917 1.4583 2.5 2.5 4.7917 1.25 2.0833 1.6667 3.125 0 0.20833 0.41667 0.83333t1.0417 0.625q1.875 1.0417 3.5417 2.7083 1.875 1.6667 4.375 2.5 1.4583 0.625 3.75 1.25 2.2917 0.41667 4.7917 1.0417 2.7083 0.625 5.2083 1.4583 2.7083 0.83333 5 2.0833 1.25 1.6667 2.2917 3.9583 1.25 2.2917 1.25 5 0 2.2917-0.83333 3.3333-0.625 1.0417-2.0833 2.0833-1.25 0.83333-4.1667 0.83333l-6.6667 0.625q-3.5417 0.41667-6.4583 0.41667-2.7083 0-4.5833 0-1.6667 0-3.75-0.41667-1.875-0.625-4.1667-0.625-5.8333 0-11.042 1.4583-5.2083 1.6667-10.625 1.6667l-9.375-3.125-13.333 3.125h-3.5417l-2.9167-2.0833q-0.41666 0-2.2917-0.20834-1.875-0.41666-5.4167-0.83333-0.83333 0-1.6667-0.83333-0.625-0.20834-2.0833-0.625-1.25-0.41667-4.1667-1.875-1.6667-2.2917-1.6667-4.375v-0.625z"/><path d="m1029.3 797.21q-2.7083-1.0417-5.625-3.9583-2.7083-3.125-2.7083-7.2917v-30l-1.0417-6.4583q1.875-6.6667 3.3333-14.375 1.4584-7.7083 1.4584-14.792 0-1.4583-0.8334-2.5-0.625-1.0417-1.6666-1.875-0.8334-1.0417-1.6667-1.6667-0.625-0.83334-0.625-1.875 0-8.125 0.4167-16.042 0.625-7.9167 0.625-14.583v-5.8333l-1.0417-5.4167q0-6.0417 1.25-12.292 1.25-6.25 1.25-12.917 0-3.5417-0.4167-6.25-0.2083-2.7083-2.0833-6.0417l2.9167-23.333-2.5-14.375 1.4583-30.625-0.8333-9.375q-1.0417-3.3333-0.625-7.2917 0.4166-3.9583-1.4584-7.0833-1.6667-3.3333-4.1667-6.0417-2.5-2.7083-4.7916-4.5833-2.9167-3.5417-6.875-4.7917-3.9584-1.25-9.375-3.3333l-0.41666-4.7917q3.75-4.5833 6.4583-7.7083 2.9167-3.3333 5.625-5.625 2.9167-2.2917 6.0417-3.9583 3.125-1.875 7.5-3.5417l8.9584-6.875 23.542-2.9167q1.6667 0 4.1667 1.875 2.7083 1.6667 5.2083 4.1667 2.5001 2.5 4.1667 5.4167 1.875 2.7083 1.875 4.7917 0 6.0417-1.875 11.25-1.6666 5.2083-1.6666 10 0 4.1667-0.4167 6.875-0.2083 2.7083-0.625 5.2083-0.2084 2.5-0.625 5.2083-0.2084 2.5-0.2084 6.0417l-2.0833 19.167v32.917q0 2.2917-0.2083 4.1667-0.2084 1.875-0.625 4.7917-0.625 5.4167-0.625 9.5833 0 1.0417 0.2083 2.7083 0.4167 1.6667 1.0417 3.3333t1.6666 2.9167q1.0417 1.25 2.5001 1.25 3.9583 0 6.6666-1.4583 2.9167-1.4583 5.4167-3.5417 2.5-2.0833 4.7917-4.1667 2.5-2.2917 5.4166-3.75 4.5834-1.875 10.208-3.125t11.458-1.875q6.0417-0.83334 11.875-1.25 6.0417-0.41667 11.042-0.41667 2.5 0 3.9583 0.625 1.4584 0.41667 2.7084 1.0417t2.7083 1.4583q1.4583 0.625 3.9583 1.0417l7.9167 1.0417 2.9167 1.4583q2.9167 2.5 6.4583 4.7917 3.5417 2.2917 7.0834 4.7917 3.75 2.2917 7.0833 5 3.5417 2.7083 6.0417 5.8333 4.375 5.4167 8.75 12.292 4.375 6.6667 7.7083 14.167 3.5417 7.5 5.625 15.625 2.0834 7.9167 2.0834 15.625-1.6667 10-2.5 20-0.625 10-3.9584 20-2.9166 10.208-6.25 17.083-3.3333 6.875-7.9167 12.292-4.5833 5.4167-10.833 10.208t-15 10.625q-3.3333 1.875-5.4167 2.9167-2.0833 0.83334-3.9583 1.6667-1.6667 0.625-3.75 1.6667-1.875 1.0417-4.7917 3.3333l-2.9167 2.5-52.292 4.375-17.708-2.0833q-1.6667-0.20833-5.2083-0.41666-3.3334-0.20834-7.2917-0.625-3.75-0.41667-7.9167-0.83334-3.9583-0.41666-6.875-1.0417zm28.542-87.708q0 1.6667 0.625 5.625t1.4583 8.9583q1.0417 5 2.2917 10.417t2.5 10q1.4583 4.5833 2.7083 7.9167 1.25 3.125 2.2917 3.5417 2.5 1.875 4.1667 3.3333 1.6666 1.4583 2.9166 2.9167 1.25 1.25 2.7084 3.125 1.4583 1.6667 3.75 4.375 1.0416 1.4583 2.7083 2.9167 1.875 1.25 3.75 2.7083 2.0833 1.25 3.9583 2.7083 1.875 1.25 3.125 2.5h18.542q3.75 0 7.9167-0.20834 4.375-0.20833 8.3333-1.25 4.1667-1.0417 7.7084-3.125 3.5416-2.0833 5.625-5.8333 1.875-4.1667 3.3333-10.208 1.4583-6.25 4.5834-10.417l5.8333-6.875q0-0.41666 0.2083-2.2917 0.4167-1.875 0.8334-4.375 0.625-2.5 1.25-5 0.625-2.7083 1.0416-4.7917 0-2.5-0.625-4.375-0.625-2.0833-0.625-4.375l2.2917-8.9583q0-1.6667-0.4167-5.2083-0.2083-3.75-1.0416-8.3333-0.625-4.7917-1.4584-9.7917-0.8333-5-2.0833-9.5833-1.0417-4.5833-2.5-7.9167-1.25-3.5417-2.7083-5l-17.917-17.708q-3.75 0-7.0834-2.2917-3.3333-2.2917-6.875-4.7917-3.5416-2.7083-7.2916-5-3.5417-2.2917-7.9167-2.2917l-18.75 3.75h-10.417q-2.9167 0-4.5833 1.6667-1.6667 1.6667-4.1667 2.5-0.4167 0-1.875 0.41666-1.25 0.41667-2.9167 1.25-1.4583 0.83334-2.7083 2.2917-1.0417 1.25-1.0417 2.9167v17.292q-2.2917 1.6667-2.2917 5.8333 0 1.0417 0.4167 2.0833 0.4167 0.83334 0.4167 1.25l1.4583 17.5z"/><path d="m1321.8 773.25q-0.8333 0.41666-2.7083 2.5-1.6667 1.875-2.7083 1.875l-7.9167 3.9583q-0.4167 0.20833-1.4584 1.0417-0.8333 0.625-2.0833 1.6667-1.0417 0.83333-1.875 1.6667-0.8333 0.625-1.0417 0.625-0.4166 0.20833-1.6666 0.41667-1.0417 0.20833-2.5 0.41666-1.25 0.20834-2.5 0.41667-1.0417 0-1.6667 0-1.6667 0.41667-3.125 1.4583-1.25 1.0417-2.7083 2.5-1.25 1.25-2.9167 2.7083-1.6667 1.25-3.75 2.2917h-19.792q-1.0417 0-2.9167-0.41667-1.6666-0.41666-3.75-1.0417-1.875-0.625-3.75-1.4583-1.875-0.83333-2.9166-1.4583 0-0.41667-1.25-1.875-1.0417-1.6667-1.25-2.7083-0.4167-0.41667-0.625-1.0417-0.625-0.625-0.625-1.25l-5.625-5.4167q-1.6667-3.3333-2.9167-8.3333-1.0417-5.2083-1.0417-8.5417l1.4584-4.375-1.4584-4.375v-2.5q0-1.0417 0.4167-2.7083 0.625-1.875 1.25-3.5417 0.625-1.875 1.25-3.3333 0.625-1.6667 1.0417-2.2917 0.2083-0.20833 1.4583-1.4583 1.4583-1.4583 3.125-3.125 1.6667-1.875 2.9167-3.3333 1.4583-1.4583 1.875-2.0833 0.2083 0 1.4583-1.4583 1.4583-1.4583 1.4583-1.875l0.4167-0.83334q0.2083-0.41666 0.2083-0.83333 3.5417-2.2917 6.875-4.7917 3.3334-2.7083 7.5-4.5833 0.2084-0.20833 2.9167-1.25 2.9167-1.25 6.25-2.5 3.5417-1.4583 6.875-2.5 3.3334-1.0417 5-1.4583 2.0834-1.0417 4.375-2.7083 2.2917-1.6667 4.375-3.125 2.2917-1.4583 4.1667-2.5 1.875-1.25 3.125-1.25h5.4167q0.2083 0 1.25-0.625 0.4166-0.20833 1.0416-0.625 0.8334-0.20833 3.9584-0.625 3.3333-0.41667 4.375-0.41667l2.7083-3.5417q1.4584-0.83333 2.9167-1.25 1.4583-0.625 2.7083-1.25t2.0834-1.6667q1.0416-1.25 1.6666-3.3333 1.4584-4.375 1.875-9.1667 0.625-5 0.625-9.375v-4.5833q0-0.41667-1.25-2.2917t-1.25-2.7083l-2.5-10.625-4.5833-5.625-2.2917-4.375q-0.8333-0.41667-1.6666-2.0833-0.8334-1.6667-1.0417-2.7083-0.4167-1.25-3.125-2.2917-2.7083-1.25-6.0417-2.0833-3.3333-1.0417-6.6667-1.4583-3.125-0.625-4.375-0.625-0.4166 0-3.3333 0-2.7083-0.20833-4.5833-0.20833t-5.2084 0.41667q-3.125 0.20833-6.0416 1.25-2.9167 0.83333-5.2084 2.5-2.0833 1.6667-2.0833 4.375v1.875q0.2083 0.41667 0.8333 1.875 0.625 1.25 1.25 2.9167 0.625 1.4583 1.0417 2.9167 0.625 1.25 0.625 1.6667 0 0.83333-0.625 2.5-0.4167 1.4583-0.8333 3.125-1.4584 6.6667-3.9584 10.208t-7.9167 6.875l-2.5 1.875q-0.8333 0.625-1.4583 1.25h-15.833q-1.875 0-3.125-1.4583t-2.0834-3.3333q-0.8333-2.0833-1.25-3.9583-0.4166-2.0833-0.4166-3.125 0-1.25 0.4166-3.3333 0.4167-2.0833 1.25-3.9583 0.8334-2.0833 1.6667-3.75 1.0417-1.875 2.0833-2.9167 0.625-1.4583 1.4584-2.5 0.4166-1.0417 0.8333-1.6667 0.625-0.625 0.8333-0.83333l3.3334-3.3333q4.5833-2.9167 7.7083-6.0417t7.2917-6.6667l14.583-9.5833q2.0834-1.875 3.75-2.7083 1.875-1.0417 3.75-1.6667t3.75-1.0417q2.0834-0.41667 4.7917-1.4583 0.2083 0 1.0417-0.41666 1.0416-0.41667 2.0833-0.83334 1.0417-0.625 2.0833-1.0417 1.0417-0.41666 1.4584-0.625 1.0416-0.20833 3.9583-0.83333 3.125-0.625 6.4583-1.25 3.5417-0.625 6.6667-1.0417t4.375-0.41667q1.0417 0 1.875 0.83334 1.0417 0.625 1.4584 0.625 0.625 0 1.875 0.20833 1.25 0 2.5 0.20834 1.4583 0.20833 2.5 0.41666 1.25 0 1.6666 0.20834 1.25 0.41666 3.3334 1.25 2.0833 0.625 4.1666 1.4583 2.0834 0.83334 3.75 1.4583 1.6667 0.625 2.0834 0.83333 0.2083 0.20833 1.0416 1.0417 0.8334 0.83333 1.875 2.0833 1.25 1.0417 2.2917 2.0833 1.0417 1.0417 1.4583 1.6667 2.2917 3.3333 4.5834 6.0417 2.5 2.7083 3.5417 6.25 1.0416 2.0833 1.4583 4.5833 0.625 2.2917 1.0417 4.5833 0.625 2.2917 1.4583 4.375 0.8333 2.0833 2.7083 3.75v12.917q0 13.75-1.0416 27.083-0.8334 13.125-1.25 27.083-0.8334 2.0833-1.4584 4.1667-0.625 1.875-0.625 4.375 0 1.875 0.4167 4.1667 0.625 2.2917 0.625 3.3333l-1.875 3.9583q-0.2083 0.83333-0.2083 1.6667v2.2917q0 3.125 0.2083 6.6667t1.0417 7.0833q0.8333 3.5417 2.2916 6.6667 1.6667 3.125 4.5834 5.2083 1.0416 0.83333 2.7083 2.5 1.875 1.4583 2.7083 1.4583h0.8334q2.0833 0 4.7916-0.625 2.7084-0.83333 5.625-1.6667 2.9167-1.0417 5.8334-1.875 3.125-0.83333 6.0416-0.83333 3.9584 0 3.9584 2.5 0 6.6667-2.7083 12.917-2.5001 6.25-7.0834 11.25-4.5833 4.7917-10.625 7.9167-6.0417 2.9167-13.125 2.9167t-13.75-0.625q-6.6667-0.83334-14.583-3.75l-1.4583-1.0417q-0.4167-0.41667-2.0833-2.5-1.4584-2.2917-3.3334-4.7917-1.6666-2.5-3.125-4.5833-1.4583-2.2917-1.6666-2.9167l-5-4.375h-1.4584zm-47.083-31.25q0 3.3333 1.0416 7.7083 1.25 4.375 3.5417 8.3333 2.2917 3.75 5.625 6.4583 3.3333 2.7083 7.5 2.7083 0.8333 0 1.4583-0.20833t3.5417-1.6667l18.958-1.6667q0.625-0.41667 1.875-1.6667 1.4583-1.4583 2.7083-2.9167 1.4583-1.4583 2.5-2.7083 1.25-1.25 1.6667-1.875 0.2083 0 0.625-1.25 0.625-1.25 1.4583-3.125t1.4583-3.9583q0.8334-2.0833 1.4584-3.75 0.4166-1.0417 0.625-3.125 0.4166-2.0833 0.4166-2.2917-0.2083-2.2917-0.4166-4.5833-0.2084-2.2917-0.2084-4.5833 0-2.0833 0.2084-3.75 0.2083-1.875 0.4166-3.75l1.4584-4.5833v-3.75q0-3.5417-2.2917-6.4583t-6.6667-2.9167q-3.5416 0-6.0416 1.6667-2.2917 1.4583-5.4167 3.75-1.0417 0.625-4.1667 2.2917-3.125 1.4583-6.6667 3.125-3.3333 1.4583-6.4583 2.9167-2.9167 1.4583-3.9583 1.875l-3.9584 2.0833q-0.4166 0-1.6666 0.41667-1.25 0.41666-1.25 0.625l-2.9167 5.4167-5 5q-1.0417 2.2917-1.25 5.4167-0.2083 2.9167-0.2083 4.7917z"/><path d="m1416 799.29q-0.625 0-1.4583 0-0.8334 0-1.875-0.41666h-4.375l-2.5-2.0833v-9.7917l4.7916-7.5q1.875-0.83333 4.375-0.83333 2.5-0.20834 2.7084-0.20834 0.8333 0 3.75-0.20833 3.125-0.41667 5-1.25 4.7916 1.0417 6.875 1.0417 2.5-1.875 4.7917-5 2.2916-3.125 3.9583-6.875 1.875-3.75 2.7083-7.5 1.0417-3.75 1.0417-6.875v-23.125q0-7.2917 0-14.167 0.2083-7.0833 0.8333-10-0.625-5.625-0.8333-11.042-0.2083-5.625-0.625-11.25l-1.4583-21.667q-0.625-9.7917-1.0417-19.583-0.4167-9.7917-0.4167-19.792 0-1.0417 0.2084-1.4583 0.2083-0.625 1.875-1.6667-0.8334-3.3333-1.0417-6.0417 0-2.7083 0-5.8333 0-2.9167 0-5.8333 0.2083-3.125 1.0417-6.4583-1.6667-1.0417-2.7084-3.125-0.8333-2.0833-0.8333-5.625 0-2.7083 1.6667-4.375 1.6666-1.6667 1.6666-5 0-4.5833-0.2083-9.7917t-1.6667-10.625q-1.4583-7.2917-1.4583-11.667 0-4.375-0.4167-9.375-1.25-1.875-4.375-3.75-2.9166-1.875-6.4583-3.75-3.3334-2.0833-6.4584-4.1667-3.125-2.2917-4.375-4.7917-1.6666-3.3333-2.2916-3.9583-0.4167-0.83334-0.8334-1.875 0-1.4583 0.8334-4.1667 0.8333-2.9167 3.125-3.3333 4.375-1.0417 8.9583-2.5 4.5834-1.4583 6.875-1.875 0.4167 0 2.0834-0.625 1.875-0.83334 3.75-1.6667 2.0833-1.0417 3.75-1.875 1.875-1.0417 2.2916-1.6667 3.9584-1.0417 7.2917-2.2917 3.5417-1.25 6.875-2.2917 3.3333-1.0417 6.875-1.875 3.75-0.83333 7.9167-1.0417 2.0833 0 3.5417 0.20834 1.4583 0.20833 1.4583 1.6667 0.8333 5.4167 1.0417 10.625 0.4166 5 0.4166 9.7917t-0.4166 9.7917q-0.2084 4.7917-1.0417 9.375-1.6667 4.375-2.0833 9.375-0.4167 5-0.4167 10l0.2083 10.833-0.625 14.375q0.8334 1.6667 1.0417 3.3333 0.4167 1.6667 0.4167 4.375 0 4.1667-0.2084 6.0417 0 1.875-0.625 2.9167l1.4584 13.333q-0.8334 3.3333-2.7084 6.875-1.875 3.3333-2.9167 7.5 0 2.2917 1.0417 4.1667 1.0417 1.6667 1.4584 4.5833 0.8333 8.125 0.8333 15.625 0.2083 7.5 0.625 15.625-1.0417 4.7917-2.5 8.5417-1.25 3.5417-1.25 7.2917v3.3333q0.2083 4.375 0.625 8.125 0.4167 3.5417 0.8333 7.0833 0.625 3.5417 1.0417 7.5 0.4167 3.75 0.8333 8.75 0 5.4167-0.625 9.375-0.4166 3.9583-0.8333 9.5833-0.2083 1.25-0.625 3.5417-0.2083 2.2917-0.625 4.7917-0.2084 2.2917-0.4167 4.375-0.2083 2.0833-0.2083 2.9167v0.20833q0.2083 1.0417 0.8333 4.1667t1.25 6.4583 1.25 6.25q0.625 2.9167 0.625 3.75l1.4584 3.125h0.4166q0.625 0 0.8334 0.625 0.2083 0.625 0.625 0.83333 0.8333 0.83334 1.0416 1.875 0.2084 0.83333 0.8334 1.875 0.8333 0.83333 2.2916 1.875 1.6667 0.83333 5.2084 1.6667 3.9583 2.5 6.0416 2.5 0.625 0 1.0417 0t1.4583-0.41667q1.6667 0.41667 3.9584 0.625 2.2916 0.20834 4.7916 0.83334 2.5 0.41666 5 1.4583t4.375 2.9167q1.0417 0.83333 1.2501 2.2917 0.2083 1.25 0.2083 3.5417v7.0833q0 1.4583-0.4167 2.7083t-1.6667 1.6667q-1.6666-0.41667-3.5416-0.41667-1.6667 0-3.3334 0-1.4583 0-3.125-0.20833-1.6666 0-4.1666-0.41667l-6.4584-0.83333q-0.4166 0-1.875-0.20834-1.25 0-2.9166-0.20833-1.4584 0-2.9167-0.20833-1.25 0-1.6667 0l-10.208-0.625q-0.2083 0-0.4167-0.20834-0.2083 0-0.4166 0 0-0.20833-0.2084-0.20833-4.5833 0.20833-8.3333 0.625-3.5417 0.41667-6.875 0.83333-3.125 0.62501-6.4584 1.0417-3.125 0.625-7.0833 0.625-4.7917-0.41666-10.417-1.0417-5.4167-0.62501-10.208-0.62501z"/></g></svg>
